<svg width="137" height="50" viewBox="0 0 137 50" fill="none" xmlns="http://www.w3.org/2000/svg">
<path d="M50 25C50 38.8071 38.8071 50 25 50C11.1929 50 0 38.8071 0 25C0 11.1929 11.1929 0 25 0C38.8071 0 50 11.1929 50 25Z" fill="#4C9CFF"/>
<path d="M10.8 29.7067C15.92 28.5067 20.9333 26.72 23.3867 25.12C24.1067 24.64 24.0533 24.32 23.0933 24.2133C21.7067 24.0533 17.2533 24.3733 14.16 24.9067L13.68 18.88C17.5467 18.1067 24.3467 17.8667 29.1467 18.4533C34.48 19.0133 36.16 22.88 32.32 26.88C35.92 26.16 39.8933 29.0667 36.6133 34.9333H30C30.2133 31.8133 29.0667 30.24 27.8133 30.2933C23.5733 32.8 18.0533 34.88 13.4133 35.76L10.8 29.7067Z" fill="white"/>
<path d="M93.333 25C93.333 38.8071 82.1401 50 68.333 50C54.5259 50 43.333 38.8071 43.333 25C43.333 11.1929 54.5259 0 68.333 0C82.1401 0 93.333 11.1929 93.333 25Z" fill="#7DB5FA"/>
<path d="M67.9997 35.52C58.3997 35.52 55.2797 32.6133 55.493 28.8C55.5463 27.68 55.9463 26.6933 56.7997 25.8667L54.373 26.0533L54.2397 20.4533C58.533 20.1067 63.253 19.92 67.973 19.92C66.0797 19.3867 63.7863 18.9867 61.4663 18.8267L63.333 14.1333C68.1597 14.7733 71.6263 16.56 73.3863 18.7733L72.7197 19.9733C75.8397 20.0533 78.9063 20.2133 81.7863 20.4533L81.653 26.0533L79.1997 25.8667C80.053 26.6933 80.453 27.68 80.5063 28.8C80.7197 32.6133 77.5997 35.52 67.9997 35.52ZM67.9997 30.5333C70.6397 30.5333 72.133 29.68 72.133 28.0533C72.133 26.48 70.6397 25.6533 67.9997 25.6533C65.3597 25.6533 63.8663 26.48 63.8663 28.0533C63.8663 29.68 65.3597 30.5333 67.9997 30.5333Z" fill="white"/>
<path d="M136.667 25C136.667 38.8071 125.474 50 111.667 50C97.8599 50 86.667 38.8071 86.667 25C86.667 11.1929 97.8599 0 111.667 0C125.474 0 136.667 11.1929 136.667 25Z" fill="#ADCDF5"/>
<path d="M97.467 29.7067C102.587 28.5067 107.6 26.72 110.054 25.12C110.774 24.64 110.72 24.32 109.76 24.2133C108.374 24.0533 103.92 24.3733 100.827 24.9067L100.347 18.88C104.214 18.1067 111.014 17.8667 115.814 18.4533C121.147 19.0133 122.827 22.88 118.987 26.88C122.587 26.16 126.56 29.0667 123.28 34.9333H116.667C116.88 31.8133 115.734 30.24 114.48 30.2933C110.24 32.8 104.72 34.88 100.08 35.76L97.467 29.7067Z" fill="white"/>
</svg>
