<svg width="24" height="24" viewBox="0 0 24 24" fill="none" xmlns="http://www.w3.org/2000/svg">
<path d="M18.6072 11.035V18.964C18.6093 19.266 18.5512 19.5654 18.4362 19.8446C18.3212 20.1238 18.1517 20.3773 17.9375 20.5902C17.7233 20.8031 17.4688 20.9711 17.1888 21.0844C16.9089 21.1977 16.6091 21.254 16.3072 21.25H5.05018C4.7471 21.2539 4.44632 21.1971 4.16556 21.0828C3.88481 20.9686 3.62977 20.7993 3.4155 20.585C3.20122 20.3706 3.03204 20.1155 2.91795 19.8347C2.80385 19.5539 2.74715 19.2531 2.75118 18.95V7.693C2.74756 7.38996 2.80457 7.08925 2.91888 6.80856C3.03318 6.52788 3.20246 6.27288 3.41676 6.05858C3.63106 5.84428 3.88605 5.675 4.16674 5.5607C4.44742 5.4464 4.74813 5.38938 5.05118 5.393H12.9792M21.2502 2.75L10.6792 13.321M21.2502 2.75H15.9642M21.2502 2.75V8.036" stroke="white" stroke-width="1.5" stroke-linecap="round" stroke-linejoin="round"/>
</svg>
