<svg width="110" height="110" viewBox="0 0 110 110" fill="none" xmlns="http://www.w3.org/2000/svg">
<path d="M109.756 54.8781C109.756 85.1864 85.1863 109.756 54.878 109.756C24.5697 109.756 0 85.1864 0 54.8781C0 24.5697 24.5697 0 54.878 0C85.1863 0 109.756 24.5697 109.756 54.8781Z" fill="#4C9CFF"/>
<path d="M21.1902 54.6732C30.6146 52.5073 35.8829 49.4634 39.278 45.4829C40.3317 44.1951 40.0976 43.0829 38.4 42.9659C33.3658 42.6732 29.7366 43.0244 24.1171 44.1951L22.9463 32.4878C29.4439 31.2 37.6975 30.8488 43.4341 31.3171C56.2536 32.3707 59.6488 40.6244 52.7414 50.0488C55.0244 49.4049 57.3073 49.639 59.0049 50.6341V39.161H67.0829C67.2 36.2341 67.4341 33.4244 67.7268 30.8488H85.9902C86.7512 40.6244 86.4 53.8537 84.4683 63.6293H68.2536C67.7268 60.1171 67.3756 56.1366 67.1414 52.039H60.5268C62.1658 54.3219 62.1658 58.2439 58.7707 63.6293H47.5902C48.0585 58.7122 47.0634 56.8976 45.7756 57.1317C39.9219 61.6976 32.8976 64.3902 24.4097 66.2049L21.1902 54.6732ZM57.7756 87.8049C41.1512 87.8049 30.0293 85.522 30.0293 76.2732C30.0293 66.9659 41.1512 64.7415 57.7756 64.7415C74.4 64.7415 85.5219 66.9659 85.5219 76.2732C85.5219 85.522 74.4 87.8049 57.7756 87.8049ZM57.7756 78.322C65.1512 78.322 67.3756 77.8537 67.3756 76.2732C67.3756 74.7512 65.1512 74.2244 57.7756 74.2244C50.4 74.2244 48.1756 74.7512 48.1756 76.2732C48.1756 77.8537 50.4 78.322 57.7756 78.322Z" fill="white"/>
</svg>
