<svg width="300" height="110" viewBox="0 0 300 110" fill="none" xmlns="http://www.w3.org/2000/svg">
<path d="M109.756 54.8781C109.756 85.1864 85.1863 109.756 54.878 109.756C24.5697 109.756 0 85.1864 0 54.8781C0 24.5697 24.5697 0 54.878 0C85.1863 0 109.756 24.5697 109.756 54.8781Z" fill="#4C9CFF"/>
<path d="M21.1902 54.6732C30.6146 52.5073 35.8829 49.4634 39.278 45.4829C40.3317 44.1951 40.0975 43.0829 38.4 42.9659C33.3658 42.6732 29.7366 43.0244 24.1171 44.1951L22.9463 32.4878C29.4439 31.2 37.6975 30.8488 43.4341 31.3171C56.2536 32.3707 59.6488 40.6244 52.7414 50.0488C55.0244 49.4049 57.3073 49.639 59.0049 50.6341V39.161H67.0829C67.2 36.2341 67.4341 33.4244 67.7268 30.8488H85.9902C86.7512 40.6244 86.4 53.8537 84.4683 63.6293H68.2536C67.7268 60.1171 67.3756 56.1366 67.1414 52.039H60.5268C62.1658 54.3219 62.1658 58.2439 58.7707 63.6293H47.5902C48.0585 58.7122 47.0634 56.8976 45.7756 57.1317C39.9219 61.6976 32.8976 64.3902 24.4097 66.2049L21.1902 54.6732ZM57.7756 87.8049C41.1512 87.8049 30.0293 85.5219 30.0293 76.2732C30.0293 66.9659 41.1512 64.7415 57.7756 64.7415C74.4 64.7415 85.5219 66.9659 85.5219 76.2732C85.5219 85.5219 74.4 87.8049 57.7756 87.8049ZM57.7756 78.322C65.1512 78.322 67.3756 77.8537 67.3756 76.2732C67.3756 74.7512 65.1512 74.2244 57.7756 74.2244C50.4 74.2244 48.1756 74.7512 48.1756 76.2732C48.1756 77.8537 50.4 78.322 57.7756 78.322Z" fill="white"/>
<path d="M204.878 54.8781C204.878 85.1864 180.308 109.756 150 109.756C119.692 109.756 95.1221 85.1864 95.1221 54.8781C95.1221 24.5697 119.692 0 150 0C180.308 0 204.878 24.5697 204.878 54.8781Z" fill="#7DB5FA"/>
<path d="M138.849 86.6341C126.322 85.9902 123.161 82.2439 123.161 76.5659C123.161 73.5219 123.922 70.8293 124.917 68.3122L142.946 69.3659C142.712 70.9463 142.537 72.5854 142.595 73.522C142.712 75.0439 144.059 75.8634 146.224 75.9805C156.527 76.5073 168.059 75.8049 179.532 74.2829L181.522 84.8195C167.298 86.8683 154.244 87.3951 138.849 86.6341ZM136.683 67.5512C124.098 67.5512 117.19 61.4634 117.6 53.3268C117.717 50.7512 118.829 48.3512 120.761 46.478L116.195 47.0634L115.903 36C121.698 35.122 127.961 34.6537 134.283 34.5366C131.473 33.6585 128.02 32.9561 124.156 32.6049L128.254 23.5317C137.971 25.522 142.829 28.7415 145.639 32.9561L144.234 34.7707C148.507 35.0049 152.722 35.4146 156.82 36L156.703 39.8634H162.205C162.322 36.4683 162.556 33.3659 162.849 30.8488H181.112C181.873 40.6244 181.522 59.1219 179.59 68.8976H163.376C163.083 66.9659 162.849 64.6244 162.673 62.1073H152.254C149.268 65.4439 144.059 67.5512 136.683 67.5512ZM136.683 56.6634C139.844 56.6634 141.951 54.439 141.951 51.161C141.951 48 139.844 45.8341 136.683 45.8341C133.522 45.8341 131.415 48 131.415 51.161C131.415 54.439 133.522 56.6634 136.683 56.6634ZM154.127 49.2293C154.654 50.3415 155.005 51.5122 155.122 52.7415H162.205L162.088 49.2293H154.127Z" fill="white"/>
<path d="M300 54.8781C300 85.1864 275.43 109.756 245.122 109.756C214.814 109.756 190.244 85.1864 190.244 54.8781C190.244 24.5697 214.814 0 245.122 0C275.43 0 300 24.5697 300 54.8781Z" fill="#ADCDF5"/>
<path d="M209.561 72.2341C218.869 66.322 226.537 58.3024 228.995 52.1561C230.108 49.3463 229.112 47.8829 226.595 47.7073C223.551 47.4732 218.342 48.0585 214.361 49.3463L213.073 35.2976C218.459 33.4244 228.527 32.6634 232.917 33.0146C246.029 34.1268 250.361 39.4537 248.02 49.6976C247.317 52.8585 245.561 56.8976 242.986 61.2878C250.712 58.4195 260.254 66.2634 250.947 82.9463H238.771C239.356 71.122 237.834 69.4829 236.078 70.8293C231.629 75.9805 226.069 80.7805 219.629 84.2342L209.561 72.2341ZM258.439 86.4585C256.859 67.9024 256.742 49.4049 257.912 30.8488H276C276.995 49.4049 276.351 67.9024 274.42 86.4585H258.439Z" fill="white"/>
</svg>
