<svg width="110" height="110" viewBox="0 0 110 110" fill="none" xmlns="http://www.w3.org/2000/svg">
<path d="M109.756 54.8781C109.756 85.1864 85.1863 109.756 54.878 109.756C24.5697 109.756 0 85.1864 0 54.8781C0 24.5697 24.5697 0 54.878 0C85.1863 0 109.756 24.5697 109.756 54.8781Z" fill="#7DB5FA"/>
<path d="M43.7268 86.6341C31.2 85.9902 28.039 82.2439 28.039 76.5659C28.039 73.522 28.8 70.8293 29.7951 68.3122L47.8244 69.3659C47.5902 70.9463 47.4146 72.5854 47.4732 73.522C47.5902 75.0439 48.9366 75.8634 51.1024 75.9805C61.4049 76.5073 72.9366 75.8049 84.4097 74.2829L86.4 84.8195C72.1756 86.8683 59.1219 87.3951 43.7268 86.6341ZM41.561 67.5512C28.9756 67.5512 22.0683 61.4634 22.478 53.3268C22.5951 50.7512 23.7073 48.3512 25.639 46.478L21.0732 47.0634L20.7805 36C26.5756 35.122 32.839 34.6537 39.161 34.5366C36.3512 33.6585 32.8976 32.9561 29.0341 32.6049L33.1317 23.5317C42.8488 25.522 47.7073 28.7415 50.5171 32.9561L49.1122 34.7707C53.3854 35.0049 57.6 35.4146 61.6975 36L61.5805 39.8634H67.0829C67.2 36.4683 67.4341 33.3659 67.7268 30.8488H85.9902C86.7512 40.6244 86.4 59.1219 84.4683 68.8976H68.2536C67.961 66.9659 67.7268 64.6244 67.5512 62.1073H57.1317C54.1463 65.4439 48.9366 67.5512 41.561 67.5512ZM41.561 56.6634C44.7219 56.6634 46.8293 54.439 46.8293 51.161C46.8293 48 44.7219 45.8341 41.561 45.8341C38.4 45.8341 36.2927 48 36.2927 51.161C36.2927 54.439 38.4 56.6634 41.561 56.6634ZM59.0049 49.2293C59.5317 50.3415 59.8829 51.5122 60 52.7415H67.0829L66.9658 49.2293H59.0049Z" fill="white"/>
</svg>
