<svg width="110" height="110" viewBox="0 0 110 110" fill="none" xmlns="http://www.w3.org/2000/svg">
<path d="M109.756 54.8781C109.756 85.1864 85.1863 109.756 54.878 109.756C24.5697 109.756 0 85.1864 0 54.8781C0 24.5697 24.5697 0 54.878 0C85.1863 0 109.756 24.5697 109.756 54.8781Z" fill="#ADCDF5"/>
<path d="M19.3171 72.2341C28.6244 66.322 36.2927 58.3024 38.7512 52.1561C39.8634 49.3463 38.8683 47.8829 36.3512 47.7073C33.3073 47.4732 28.0976 48.0585 24.1171 49.3463L22.8293 35.2976C28.2146 33.4244 38.2829 32.6634 42.6732 33.0146C55.7853 34.1268 60.1171 39.4537 57.7756 49.6976C57.0732 52.8585 55.3171 56.8976 52.7414 61.2878C60.4683 58.4195 70.0097 66.2634 60.7024 82.9463H48.5268C49.1122 71.122 47.5902 69.4829 45.8341 70.8293C41.3854 75.9805 35.8244 80.7805 29.3854 84.2342L19.3171 72.2341ZM68.1951 86.4585C66.6146 67.9024 66.4975 49.4049 67.6683 30.8488H85.7561C86.7512 49.4049 86.1073 67.9024 84.1756 86.4585H68.1951Z" fill="white"/>
</svg>
